<svg width="154" height="154" viewBox="0 0 154 154" fill="none" xmlns="http://www.w3.org/2000/svg">
<g opacity="0.2">
<path d="M77.714 151.331C115.667 151.331 146.434 149.78 146.434 147.867C146.434 145.954 115.667 144.403 77.714 144.403C39.7608 144.403 8.99365 145.954 8.99365 147.867C8.99365 149.78 39.7608 151.331 77.714 151.331Z" fill="#263238"/>
</g>
<path d="M149.363 16.2126C145.744 6.65843 138.042 0.719578 132.16 2.94765C129.11 4.10327 127.151 7.2307 126.474 11.304C114.754 6.56388 99.4119 9.71718 88.9236 11.9021C73.1885 15.1805 56.7976 -5.79986 30.1353 8.40572C28.0606 9.51113 26.1747 10.8833 24.4613 12.4784C24.4638 9.58967 23.768 6.78749 21.4734 5.19297C15.8838 1.3094 9.92402 12.6404 9.92402 12.6404C9.92402 12.6404 1.98994 20.3922 1.7226 47.9033C1.45525 75.4145 7.41721 61.3531 7.41721 61.3531L8.75085 57.9484C7.74708 73.4683 9.12168 87.7804 10.029 93.2924C10.8733 98.4206 12.4881 102.884 14.7156 106.774C12.9661 106.991 11.4942 107.646 10.4285 108.782C6.07433 113.424 10.1162 124.289 19.4563 133.051C28.7964 141.813 39.898 145.154 44.2522 140.512C46.8582 137.734 46.4544 132.727 43.7098 127.275C61.1216 132.405 81.871 132.188 97.7102 131.179C98.2375 131.237 98.6801 131.28 99.0075 131.303C102.182 131.53 89.4838 134.704 91.5246 140.147C93.5654 145.589 123.497 141.961 137.102 131.757C150.707 121.553 147.079 116.111 146.398 111.349C145.718 106.588 139.142 108.629 137.782 112.483C137.596 113.01 137.461 113.264 137.366 113.313C137.919 108.795 137.677 104.029 138.012 99.7397C138.972 87.4468 141.673 75.2969 142.858 63.0138C143.635 54.9704 144.301 46.294 143.331 37.9805C143.992 37.9229 144.64 37.7837 145.266 37.5465C151.148 35.3181 152.982 25.7668 149.363 16.2126Z" fill="#009688" fill-opacity="0.5"/>
<path opacity="0.7" d="M149.363 16.2126C145.744 6.65843 138.042 0.719578 132.16 2.94765C129.11 4.10327 127.151 7.2307 126.474 11.304C114.754 6.56388 99.4119 9.71718 88.9236 11.9021C73.1885 15.1805 56.7976 -5.79986 30.1353 8.40572C28.0606 9.51113 26.1747 10.8833 24.4613 12.4784C24.4638 9.58967 23.768 6.78749 21.4734 5.19297C15.8838 1.3094 9.92402 12.6404 9.92402 12.6404C9.92402 12.6404 1.98994 20.3922 1.7226 47.9033C1.45525 75.4145 7.41721 61.3531 7.41721 61.3531L8.75085 57.9484C7.74708 73.4683 9.12168 87.7804 10.029 93.2924C10.8733 98.4206 12.4881 102.884 14.7156 106.774C12.9661 106.991 11.4942 107.646 10.4285 108.782C6.07433 113.424 10.1162 124.289 19.4563 133.051C28.7964 141.813 39.898 145.154 44.2522 140.512C46.8582 137.734 46.4544 132.727 43.7098 127.275C61.1216 132.405 81.871 132.188 97.7102 131.179C98.2375 131.237 98.6801 131.28 99.0075 131.303C102.182 131.53 89.4838 134.704 91.5246 140.147C93.5654 145.589 123.497 141.961 137.102 131.757C150.707 121.553 147.079 116.111 146.398 111.349C145.718 106.588 139.142 108.629 137.782 112.483C137.596 113.01 137.461 113.264 137.366 113.313C137.919 108.795 137.677 104.029 138.012 99.7397C138.972 87.4468 141.673 75.2969 142.858 63.0138C143.635 54.9704 144.301 46.294 143.331 37.9805C143.992 37.9229 144.64 37.7837 145.266 37.5465C151.148 35.3181 152.982 25.7668 149.363 16.2126Z" fill="white"/>
<path d="M126.489 130.764C127.009 130.991 128.284 130.962 128.285 130.962C128.298 130.962 128.011 130.128 127.987 130.078C127.707 129.493 126.823 128.527 126.104 128.625C125.586 128.695 125.298 129.213 125.415 129.701C125.534 130.2 126.045 130.57 126.489 130.764Z" fill="#263238"/>
<path d="M126.928 134.454C127.468 134.533 128.606 134.203 128.696 134.177C128.875 134.813 129.111 135.452 129.385 136.085C129.542 136.447 129.711 136.807 129.884 137.165C129.781 137.013 129.687 136.878 129.672 136.861C129.248 136.37 128.14 135.673 127.472 135.956C126.991 136.161 126.85 136.737 127.091 137.177C127.338 137.626 127.929 137.848 128.408 137.917C128.894 137.988 129.869 137.727 130.127 137.654C130.195 137.791 130.261 137.929 130.33 138.065C130.659 138.721 130.99 139.373 131.296 140.024C131.404 140.253 131.501 140.482 131.6 140.712C131.508 140.577 131.429 140.464 131.415 140.448C130.991 139.958 129.883 139.26 129.215 139.544C128.734 139.748 128.593 140.324 128.835 140.764C129.082 141.213 129.673 141.435 130.151 141.505C130.615 141.573 131.517 141.339 131.823 141.254C131.917 141.492 132.012 141.73 132.092 141.965C132.143 142.127 132.204 142.278 132.246 142.444C132.291 142.606 132.336 142.767 132.381 142.926C132.455 143.237 132.534 143.556 132.599 143.86C132.646 144.072 132.686 144.274 132.728 144.478C132.623 144.248 132.409 143.804 132.387 143.769C132.042 143.22 131.053 142.363 130.349 142.541C129.843 142.671 129.616 143.219 129.789 143.69C129.964 144.171 130.515 144.48 130.978 144.622C131.488 144.778 132.616 144.635 132.757 144.616C132.825 144.954 132.887 145.282 132.941 145.593C132.982 145.824 133.019 146.045 133.053 146.257H133.505C133.462 146.021 133.415 145.773 133.364 145.515C133.297 145.172 133.218 144.807 133.134 144.433C133.218 144.4 133.7 144.205 134.126 143.967C134.498 144.369 135.45 144.84 135.573 144.9C135.444 145.218 135.314 145.527 135.188 145.816C135.121 145.97 135.056 146.114 134.992 146.258H135.47C135.508 146.167 135.545 146.078 135.584 145.983C135.717 145.661 135.853 145.313 135.989 144.954C136.125 144.983 137.242 145.21 137.763 145.092C138.235 144.985 138.807 144.718 139.018 144.251C139.225 143.794 139.04 143.231 138.544 143.064C137.856 142.833 136.806 143.615 136.421 144.136C136.399 144.167 136.189 144.528 136.062 144.758C136.116 144.612 136.171 144.47 136.226 144.318C136.335 144.019 136.436 143.717 136.546 143.392C136.593 143.234 136.641 143.074 136.69 142.912C136.741 142.752 136.775 142.578 136.819 142.409C136.913 142.016 136.988 141.613 137.056 141.206C137.318 141.301 138.254 141.627 138.739 141.593C139.222 141.559 139.828 141.382 140.108 140.953C140.381 140.532 140.284 139.947 139.819 139.707C139.174 139.375 138.017 139.988 137.558 140.445C137.529 140.474 137.236 140.839 137.08 141.042C137.118 140.797 137.158 140.553 137.189 140.304C137.278 139.584 137.346 138.853 137.417 138.124C137.439 137.9 137.463 137.678 137.486 137.455C137.579 137.49 138.684 137.901 139.228 137.863C139.711 137.829 140.316 137.652 140.596 137.223C140.87 136.802 140.772 136.217 140.307 135.977C139.662 135.645 138.506 136.258 138.046 136.715C138.012 136.75 137.591 137.276 137.49 137.415C137.542 136.924 137.599 136.436 137.673 135.957C137.776 135.296 137.913 134.653 138.092 134.04C138.135 134.056 139.286 134.491 139.842 134.452C140.325 134.418 140.931 134.241 141.211 133.811C141.485 133.39 141.387 132.805 140.922 132.566C140.277 132.233 139.121 132.846 138.661 133.303C138.625 133.339 138.173 133.905 138.098 134.014C138.109 133.978 138.116 133.938 138.127 133.902C138.327 133.25 138.601 132.644 138.887 132.089C139.052 131.765 139.228 131.466 139.406 131.178C139.612 131.281 140.559 131.741 141.064 131.761C141.547 131.781 142.169 131.671 142.494 131.275C142.812 130.887 142.779 130.295 142.344 130.005C141.739 129.604 140.522 130.086 140.015 130.49C139.988 130.512 139.732 130.767 139.549 130.955C139.631 130.826 139.714 130.692 139.795 130.57C140.098 130.113 140.404 129.713 140.679 129.361C140.836 129.162 140.982 128.985 141.121 128.821C141.376 128.817 142.403 128.785 142.852 128.575C143.29 128.369 143.791 127.985 143.897 127.484C144.001 126.993 143.699 126.482 143.179 126.426C142.457 126.348 141.6 127.337 141.336 127.93C141.313 127.981 141.049 128.822 141.062 128.822C141.062 128.822 141.074 128.822 141.077 128.822C140.941 128.977 140.796 129.145 140.642 129.331C140.359 129.678 140.044 130.072 139.729 130.525C139.413 130.976 139.083 131.475 138.783 132.033C138.481 132.591 138.191 133.194 137.974 133.853C137.972 133.861 137.97 133.869 137.968 133.876C137.971 133.664 137.962 133.069 137.956 133.023C137.873 132.38 137.334 131.187 136.62 131.055C136.106 130.96 135.67 131.363 135.63 131.863C135.588 132.374 135.958 132.885 136.319 133.208C136.726 133.571 137.857 133.923 137.947 133.951C137.745 134.581 137.59 135.244 137.469 135.923C137.4 136.312 137.342 136.705 137.289 137.1C137.287 136.916 137.283 136.752 137.28 136.729C137.196 136.086 136.658 134.893 135.944 134.761C135.43 134.666 134.994 135.069 134.953 135.569C134.912 136.079 135.282 136.591 135.643 136.913C136.009 137.24 136.967 137.56 137.221 137.641C137.202 137.793 137.182 137.944 137.164 138.096C137.077 138.825 136.994 139.552 136.89 140.263C136.853 140.513 136.808 140.759 136.764 141.004C136.761 140.841 136.757 140.703 136.755 140.683C136.671 140.04 136.133 138.847 135.419 138.715C134.905 138.62 134.469 139.023 134.428 139.523C134.386 140.033 134.757 140.545 135.118 140.867C135.467 141.179 136.348 141.483 136.651 141.581C136.598 141.831 136.545 142.081 136.482 142.322C136.436 142.484 136.403 142.645 136.347 142.806C136.295 142.966 136.244 143.125 136.193 143.283C136.084 143.583 135.973 143.892 135.86 144.182C135.782 144.384 135.704 144.576 135.627 144.768C135.666 144.519 135.733 144.03 135.734 143.989C135.743 143.558 135.591 142.859 135.286 142.367C135.288 142.303 135.285 142.24 135.275 142.176C135.195 141.681 134.73 141.313 134.224 141.448C133.523 141.634 133.078 142.866 133.045 143.513C133.043 143.551 133.068 143.968 133.088 144.231C133.053 144.078 133.02 143.929 132.982 143.773C132.908 143.463 132.826 143.155 132.738 142.824C132.691 142.666 132.642 142.506 132.593 142.344C132.548 142.183 132.48 142.018 132.424 141.853C132.285 141.474 132.126 141.096 131.957 140.72C132.229 140.655 133.19 140.41 133.575 140.114C133.96 139.819 134.367 139.337 134.363 138.824C134.36 138.322 133.956 137.888 133.436 137.945C132.714 138.023 132.088 139.173 131.957 139.807C131.949 139.847 131.906 140.313 131.887 140.569C131.784 140.344 131.682 140.118 131.57 139.893C131.248 139.243 130.901 138.596 130.558 137.948C130.453 137.75 130.351 137.551 130.248 137.353C130.345 137.33 131.493 137.064 131.925 136.732C132.309 136.438 132.716 135.956 132.713 135.443C132.709 134.941 132.305 134.507 131.785 134.564C131.063 134.642 130.437 135.792 130.306 136.426C130.296 136.474 130.236 137.145 130.229 137.316C130.001 136.879 129.779 136.441 129.577 136C129.298 135.392 129.058 134.78 128.869 134.17C128.914 134.16 130.114 133.887 130.556 133.548C130.941 133.253 131.348 132.771 131.344 132.259C131.341 131.757 130.937 131.323 130.417 131.379C129.695 131.457 129.069 132.607 128.938 133.242C128.928 133.292 128.863 134.014 128.861 134.145C128.85 134.109 128.834 134.072 128.823 134.036C128.63 133.382 128.524 132.725 128.456 132.104C128.415 131.744 128.397 131.397 128.387 131.059C128.615 131.031 129.659 130.892 130.091 130.631C130.505 130.38 130.963 129.946 131.015 129.436C131.067 128.937 130.713 128.461 130.19 128.46C129.464 128.458 128.715 129.532 128.515 130.149C128.505 130.183 128.432 130.536 128.382 130.794C128.38 130.641 128.375 130.484 128.375 130.338C128.376 129.789 128.411 129.286 128.445 128.841C128.467 128.588 128.492 128.36 128.517 128.147C128.727 128.003 129.566 127.41 129.825 126.987C130.077 126.573 130.283 125.977 130.095 125.5C129.911 125.034 129.377 124.774 128.912 125.014C128.267 125.347 128.098 126.646 128.205 127.285C128.214 127.34 128.457 128.187 128.469 128.18C128.469 128.18 128.479 128.173 128.481 128.171C128.453 128.376 128.425 128.596 128.399 128.837C128.355 129.282 128.309 129.785 128.296 130.336C128.282 130.886 128.282 131.485 128.339 132.116C128.395 132.748 128.486 133.41 128.668 134.08C128.671 134.087 128.674 134.095 128.676 134.103C128.562 133.923 128.226 133.432 128.195 133.398C127.771 132.907 126.664 132.21 125.996 132.493C125.514 132.698 125.373 133.274 125.615 133.714C125.859 134.162 126.449 134.384 126.928 134.454Z" fill="#263238"/>
<path d="M139.375 131.044C139.387 131.051 139.607 130.197 139.615 130.142C139.704 129.5 139.5 128.207 138.846 127.891C138.375 127.664 137.849 127.937 137.678 128.409C137.502 128.89 137.725 129.481 137.988 129.887C138.296 130.364 139.375 131.043 139.375 131.044Z" fill="#263238"/>
<path d="M12.1327 132.229C12.6043 132.435 13.758 132.409 13.759 132.409C13.771 132.409 13.511 131.654 13.4891 131.608C13.236 131.079 12.4355 130.204 11.7844 130.293C11.3153 130.356 11.0544 130.825 11.1601 131.267C11.2682 131.719 11.7311 132.054 12.1327 132.229Z" fill="#263238"/>
<path d="M12.5307 135.57C13.0198 135.642 14.0495 135.343 14.1314 135.319C14.294 135.895 14.5075 136.474 14.7557 137.047C14.8971 137.375 15.0502 137.7 15.2076 138.025C15.1136 137.888 15.0286 137.765 15.0151 137.75C14.631 137.306 13.6281 136.674 13.0235 136.931C12.5877 137.116 12.4602 137.638 12.6789 138.036C12.9022 138.442 13.4375 138.643 13.8711 138.707C14.3113 138.771 15.194 138.534 15.4268 138.468C15.4884 138.592 15.5488 138.716 15.611 138.84C15.9092 139.433 16.2092 140.024 16.4858 140.613C16.5834 140.821 16.6718 141.029 16.7611 141.236C16.6776 141.114 16.6062 141.012 16.5936 140.998C16.2095 140.554 15.2069 139.922 14.602 140.179C14.1662 140.364 14.0384 140.886 14.2574 141.284C14.481 141.69 15.016 141.892 15.4496 141.955C15.8698 142.016 16.6866 141.805 16.9635 141.728C17.0485 141.943 17.1341 142.159 17.2068 142.371C17.253 142.518 17.3081 142.655 17.3463 142.805C17.3876 142.952 17.4279 143.098 17.4683 143.242C17.5357 143.523 17.6069 143.812 17.6657 144.088C17.7082 144.279 17.7449 144.462 17.7827 144.647C17.6879 144.439 17.4941 144.037 17.4741 144.005C17.1618 143.508 16.2665 142.732 15.6295 142.894C15.1706 143.011 14.9655 143.507 15.1216 143.934C15.2809 144.37 15.7792 144.649 16.1984 144.778C16.6601 144.919 17.6817 144.79 17.8092 144.773C17.8705 145.078 17.9272 145.375 17.9762 145.657C18.0128 145.866 18.0464 146.066 18.0772 146.258H18.4865C18.448 146.044 18.4058 145.82 18.359 145.586C18.298 145.276 18.2269 144.945 18.1505 144.607C18.2275 144.576 18.663 144.4 19.0492 144.184C19.3856 144.548 20.2474 144.975 20.3592 145.029C20.2418 145.317 20.1251 145.597 20.0105 145.859C19.9501 145.997 19.8916 146.128 19.8331 146.258H20.2658C20.3003 146.176 20.3342 146.095 20.3693 146.01C20.4898 145.718 20.6123 145.403 20.7355 145.078C20.859 145.104 21.8705 145.31 22.3421 145.203C22.7696 145.106 23.2873 144.865 23.4789 144.442C23.6662 144.028 23.4986 143.518 23.0495 143.367C22.4268 143.157 21.4757 143.865 21.1273 144.337C21.1067 144.365 20.9176 144.693 20.8014 144.901C20.851 144.768 20.9006 144.64 20.9499 144.502C21.0494 144.231 21.1406 143.958 21.2397 143.664C21.2825 143.521 21.326 143.375 21.37 143.229C21.4165 143.085 21.4473 142.926 21.4871 142.774C21.5718 142.418 21.6404 142.054 21.7011 141.685C21.9386 141.771 22.7865 142.066 23.2257 142.035C23.6631 142.005 24.2113 141.844 24.4645 141.455C24.7124 141.074 24.624 140.545 24.203 140.328C23.619 140.026 22.5718 140.582 22.1557 140.996C22.1299 141.021 21.8647 141.352 21.7227 141.536C21.7575 141.314 21.7935 141.093 21.8212 140.867C21.9022 140.216 21.9635 139.554 22.0282 138.893C22.0476 138.691 22.0698 138.49 22.091 138.288C22.1751 138.32 23.1755 138.692 23.6674 138.658C24.1044 138.627 24.653 138.467 24.9062 138.078C25.1541 137.697 25.0657 137.167 24.6447 136.95C24.0607 136.649 23.0135 137.204 22.5977 137.618C22.5663 137.649 22.1856 138.126 22.0947 138.252C22.1416 137.807 22.1924 137.366 22.2604 136.932C22.3532 136.334 22.4773 135.752 22.6393 135.197C22.6784 135.211 23.7207 135.605 24.2246 135.57C24.6619 135.539 25.2105 135.378 25.4633 134.989C25.7113 134.609 25.6229 134.079 25.2022 133.862C24.6179 133.56 23.571 134.116 23.1549 134.53C23.1222 134.562 22.7129 135.075 22.6454 135.173C22.6553 135.14 22.6615 135.105 22.6716 135.072C22.8521 134.482 23.101 133.933 23.3591 133.43C23.5085 133.137 23.6677 132.866 23.8285 132.606C24.0151 132.699 24.8726 133.115 25.3297 133.134C25.7676 133.151 26.3304 133.052 26.6248 132.693C26.9131 132.342 26.8835 131.806 26.489 131.544C25.9414 131.18 24.8396 131.617 24.3807 131.983C24.3558 132.003 24.1245 132.233 23.9584 132.403C24.0327 132.287 24.1072 132.165 24.1808 132.055C24.4559 131.641 24.7331 131.279 24.9813 130.96C25.1239 130.78 25.2564 130.62 25.3817 130.472C25.6124 130.468 26.5423 130.439 26.9491 130.249C27.3458 130.062 27.7995 129.715 27.8956 129.261C27.9896 128.817 27.716 128.354 27.2454 128.304C26.5922 128.233 25.8154 129.129 25.5767 129.665C25.556 129.711 25.3167 130.473 25.3287 130.472C25.3287 130.472 25.3398 130.472 25.3426 130.472C25.2188 130.613 25.0879 130.765 24.9481 130.934C24.6924 131.248 24.4066 131.605 24.1217 132.015C23.8359 132.423 23.5368 132.875 23.2645 133.38C22.991 133.885 22.7295 134.431 22.5324 135.028C22.5303 135.035 22.5287 135.042 22.5266 135.049C22.5299 134.857 22.5213 134.318 22.5161 134.277C22.4406 133.695 21.9528 132.614 21.3066 132.495C20.8412 132.409 20.4466 132.774 20.4097 133.226C20.3718 133.689 20.7072 134.152 21.034 134.443C21.4027 134.773 22.4261 135.092 22.5075 135.117C22.3251 135.687 22.1844 136.287 22.075 136.902C22.0122 137.254 21.9601 137.61 21.9121 137.967C21.9096 137.801 21.9062 137.652 21.9035 137.631C21.828 137.049 21.3401 135.969 20.694 135.849C20.2283 135.763 19.834 136.128 19.7971 136.581C19.7592 137.043 20.0943 137.506 20.4214 137.798C20.7531 138.094 21.6201 138.384 21.8505 138.457C21.8336 138.595 21.8151 138.732 21.7988 138.869C21.7199 139.529 21.6441 140.187 21.5499 140.831C21.5169 141.057 21.476 141.28 21.4359 141.502C21.4335 141.354 21.4304 141.23 21.4279 141.211C21.3525 140.629 20.8646 139.549 20.2184 139.429C19.7527 139.343 19.3585 139.708 19.3212 140.161C19.2833 140.623 19.6187 141.086 19.9455 141.378C20.2618 141.661 21.0599 141.935 21.3334 142.024C21.2853 142.25 21.2379 142.477 21.1812 142.695C21.139 142.842 21.1088 142.987 21.0583 143.133C21.0115 143.278 20.965 143.423 20.9188 143.565C20.8199 143.837 20.7198 144.117 20.617 144.38C20.5467 144.563 20.4762 144.736 20.406 144.91C20.4414 144.685 20.5018 144.242 20.5027 144.205C20.5116 143.815 20.3733 143.181 20.0977 142.735C20.0992 142.678 20.0961 142.621 20.0869 142.564C20.0148 142.115 19.5935 141.782 19.1358 141.904C18.5007 142.073 18.0978 143.188 18.0679 143.774C18.0661 143.808 18.0889 144.186 18.1071 144.423C18.075 144.285 18.0458 144.151 18.011 144.009C17.9444 143.728 17.8696 143.45 17.7904 143.15C17.747 143.007 17.7033 142.862 17.6589 142.715C17.6183 142.569 17.5564 142.42 17.5055 142.271C17.3799 141.928 17.236 141.586 17.0833 141.245C17.3294 141.186 18.1992 140.964 18.5484 140.696C18.8962 140.429 19.2651 139.992 19.2618 139.529C19.2584 139.074 18.8925 138.681 18.4218 138.732C17.7686 138.803 17.2015 139.844 17.0827 140.419C17.0753 140.455 17.0365 140.877 17.0198 141.109C16.9265 140.905 16.8344 140.7 16.7331 140.496C16.4411 139.908 16.1272 139.322 15.8168 138.736C15.7216 138.556 15.6289 138.376 15.5353 138.196C15.623 138.176 16.6625 137.935 17.054 137.635C17.4017 137.368 17.7707 136.932 17.7673 136.468C17.764 136.013 17.398 135.62 16.9274 135.671C16.2742 135.742 15.7071 136.783 15.5885 137.358C15.5796 137.402 15.5248 138.009 15.5183 138.164C15.3126 137.768 15.1111 137.371 14.9285 136.972C14.6756 136.421 14.4582 135.868 14.2869 135.315C14.3279 135.306 15.4139 135.059 15.8149 134.752C16.1627 134.485 16.5316 134.049 16.5283 133.584C16.5252 133.13 16.159 132.737 15.6883 132.788C15.0351 132.859 14.468 133.9 14.3495 134.475C14.3402 134.52 14.2814 135.173 14.2792 135.293C14.2691 135.26 14.2549 135.227 14.2454 135.194C14.0701 134.602 13.9749 134.007 13.9127 133.445C13.8761 133.118 13.8594 132.805 13.8499 132.499C14.0569 132.474 15.0018 132.348 15.393 132.111C15.7681 131.884 16.1827 131.49 16.2301 131.029C16.2766 130.577 15.956 130.146 15.4826 130.145C14.8253 130.144 14.1474 131.116 13.9663 131.674C13.9565 131.705 13.8905 132.024 13.8459 132.258C13.8437 132.12 13.8388 131.977 13.8394 131.845C13.8403 131.348 13.8718 130.893 13.9029 130.49C13.9223 130.261 13.9448 130.054 13.9675 129.861C14.1576 129.73 14.9177 129.194 15.1515 128.81C15.3797 128.436 15.5664 127.896 15.396 127.465C15.2291 127.042 14.7459 126.807 14.3254 127.025C13.7415 127.327 13.5881 128.502 13.6845 129.081C13.6928 129.13 13.9133 129.898 13.9235 129.891C13.9235 129.891 13.9327 129.885 13.9349 129.883C13.909 130.069 13.8838 130.268 13.8607 130.486C13.8206 130.889 13.7794 131.344 13.7677 131.843C13.7547 132.342 13.7544 132.884 13.8058 133.455C13.8567 134.027 13.9392 134.626 14.1043 135.233C14.1061 135.24 14.1089 135.247 14.1108 135.254C14.0073 135.091 13.703 134.647 13.6759 134.615C13.2918 134.171 12.2893 133.54 11.6843 133.796C11.2485 133.981 11.121 134.503 11.3397 134.901C11.5621 135.307 12.0971 135.507 12.5307 135.57Z" fill="#263238"/>
<path d="M23.8006 132.483C23.8108 132.489 24.0104 131.716 24.0175 131.666C24.0985 131.085 23.9131 129.914 23.3214 129.628C22.8951 129.422 22.4186 129.67 22.2631 130.097C22.1045 130.533 22.3056 131.068 22.5437 131.436C22.8234 131.868 23.8 132.482 23.8006 132.483Z" fill="#263238"/>
<path d="M119.79 90.4988H114.312C112.702 90.4988 111.396 89.1932 111.396 87.5827V79.5648C111.396 77.9543 112.702 76.6487 114.312 76.6487H121.614C123.224 76.6487 124.53 77.9543 124.53 79.5648V87.5827C124.53 89.1932 123.224 90.4988 121.614 90.4988" stroke="#263238" stroke-width="0.5" stroke-miterlimit="10" stroke-linecap="round"/>
<path d="M111.396 104.109V99.8119C111.396 98.2014 112.702 96.8958 114.312 96.8958H121.614C123.224 96.8958 124.53 98.2014 124.53 99.8119V107.83C124.53 109.441 123.224 110.746 121.614 110.746H114.312C112.702 110.746 111.396 109.441 111.396 107.83V105.986" stroke="#263238" stroke-width="0.5" stroke-miterlimit="10" stroke-linecap="round"/>
<path d="M124.53 126.295V128.077C124.53 129.688 123.224 130.993 121.613 130.993H114.312C112.701 130.993 111.396 129.688 111.396 128.077V120.059C111.396 118.449 112.701 117.143 114.312 117.143H121.613C123.224 117.143 124.53 118.449 124.53 120.059V124.419" stroke="#263238" stroke-width="0.5" stroke-miterlimit="10" stroke-linecap="round"/>
<path d="M119.273 83.5737L122.66 80.1866C123.021 79.825 123.021 79.2386 122.66 78.8767C122.298 78.5151 121.712 78.5151 121.35 78.8767L117.963 82.2637L114.576 78.8767C114.214 78.5151 113.628 78.5151 113.266 78.8767C112.904 79.2383 112.904 79.8247 113.266 80.1866L116.653 83.5737L113.266 86.9607C112.904 87.3223 112.904 87.9088 113.266 88.2707C113.447 88.4515 113.684 88.542 113.921 88.542C114.157 88.542 114.395 88.4515 114.575 88.2707L117.963 84.8836L121.35 88.2707C121.53 88.4515 121.768 88.542 122.004 88.542C122.241 88.542 122.478 88.4515 122.66 88.2707C123.021 87.9091 123.021 87.3226 122.66 86.9607L119.273 83.5737Z" fill="#E13B3F" stroke="#263238" stroke-width="0.5" stroke-miterlimit="10"/>
<path d="M119.273 104.087L122.66 100.7C123.021 100.338 123.021 99.7515 122.66 99.3896C122.298 99.028 121.712 99.028 121.35 99.3896L117.963 102.777L114.576 99.3896C114.214 99.028 113.628 99.028 113.266 99.3896C112.904 99.7512 112.904 100.338 113.266 100.7L116.653 104.087L113.266 107.474C112.904 107.835 112.904 108.422 113.266 108.784C113.447 108.964 113.684 109.055 113.921 109.055C114.157 109.055 114.395 108.964 114.575 108.784L117.963 105.397L121.35 108.784C121.53 108.964 121.768 109.055 122.004 109.055C122.241 109.055 122.478 108.964 122.66 108.784C123.021 108.422 123.021 107.836 122.66 107.474L119.273 104.087Z" fill="#E13B3F" stroke="#263238" stroke-width="0.5" stroke-miterlimit="10"/>
<path d="M38.5517 90.4986H34.7926C33.1821 90.4986 31.8765 89.193 31.8765 87.5824V79.5646C31.8765 77.9541 33.1821 76.6484 34.7926 76.6484H42.0941C43.7046 76.6484 45.0102 77.9541 45.0102 79.5646V87.5824C45.0102 89.193 43.7046 90.4986 42.0941 90.4986H40.4281" stroke="#263238" stroke-width="0.5" stroke-miterlimit="10" stroke-linecap="round"/>
<path d="M39.4348 96.8955H42.0941C43.7046 96.8955 45.0102 98.2011 45.0102 99.8116V107.83C45.0102 109.44 43.7046 110.746 42.0941 110.746H34.7926C33.1821 110.746 31.8765 109.44 31.8765 107.83V99.8116C31.8765 98.2011 33.1821 96.8955 34.7926 96.8955H36.7857" stroke="#263238" stroke-width="0.5" stroke-miterlimit="10" stroke-linecap="round"/>
<path d="M31.8765 122.873V120.059C31.8765 118.448 33.1821 117.143 34.7926 117.143H42.0941C43.7046 117.143 45.0102 118.448 45.0102 120.059V128.077C45.0102 129.687 43.7046 130.993 42.0941 130.993H34.7926C33.1821 130.993 31.8765 129.687 31.8765 128.077V125.081" stroke="#263238" stroke-width="0.5" stroke-miterlimit="10" stroke-linecap="round"/>
<path d="M38.186 87.4984C38.1543 87.4984 38.1223 87.4969 38.0902 87.4938C37.7801 87.4633 37.5029 87.2872 37.3439 87.0189L34.6489 82.4762C34.373 82.0111 34.5264 81.4105 34.9914 81.1346C35.4565 80.8586 36.0571 81.012 36.3331 81.477L38.3477 84.8731L45.5417 76.857C45.9026 76.4545 46.5217 76.4209 46.9243 76.7822C47.3268 77.1435 47.3601 77.7626 46.9991 78.1648L38.9147 87.1732C38.7278 87.3814 38.4623 87.4984 38.186 87.4984Z" fill="#009688" stroke="#263238" stroke-width="0.5" stroke-miterlimit="10"/>
<path d="M53.2996 41.4206C53.2996 41.4206 52.4932 39.7842 52.0251 39.1389C51.5566 38.4934 49.9821 38.2707 49.6051 38.1783C49.2284 38.0859 47.2689 37.4807 46.8001 37.1449C46.3314 36.8095 46.1339 37.1058 46.1691 37.4606C46.2322 38.0979 47.0173 38.5725 47.2929 38.5611C47.694 38.5445 47.77 38.947 47.77 38.947C47.77 38.947 44.8126 39.4885 44.6454 39.4127C44.4778 39.3373 43.1389 38.8842 42.7703 39.1519C42.5688 39.2982 42.5972 39.3247 42.6388 39.75C42.6495 39.8587 42.4493 40.5101 42.4931 40.6096C42.5645 40.7732 42.5541 40.9454 42.7496 41.1148C42.9874 41.3205 43.4356 41.5164 43.5126 41.6146C43.9056 42.1176 45.2786 42.923 45.8564 42.9825C46.4342 43.0416 50.7958 42.5716 50.7958 42.5716L55.5335 50.761L60.3389 48.1892L53.2996 41.4206Z" fill="white" stroke="#263238" stroke-miterlimit="10" stroke-linecap="round"/>
<path d="M46.9691 41.6669C46.6349 41.9 46.1547 42.1923 46.1547 42.1923L45.4762 42.1498C45.4762 42.1498 44.0868 41.2437 43.7936 41.3441C43.7936 41.3441 43.5004 41.2169 43.5121 41.6142" fill="white"/>
<path d="M46.9691 41.6669C46.6349 41.9 46.1547 42.1923 46.1547 42.1923L45.4762 42.1498C45.4762 42.1498 44.0868 41.2437 43.7936 41.3441C43.7936 41.3441 43.5004 41.2169 43.5121 41.6142" stroke="#263238" stroke-miterlimit="10" stroke-linecap="round"/>
<path d="M51.2428 40.731C51.2428 40.731 50.6967 40.2949 49.7586 40.2435C49.3579 40.2216 48.3689 40.8641 47.6802 41.2753" fill="white"/>
<path d="M51.2428 40.731C51.2428 40.731 50.6967 40.2949 49.7586 40.2435C49.3579 40.2216 48.3689 40.8641 47.6802 41.2753" stroke="#263238" stroke-miterlimit="10" stroke-linecap="round"/>
<path d="M47.7695 38.9468L49.4361 39.0324" stroke="#263238" stroke-miterlimit="10" stroke-linecap="round"/>
<path d="M42.6387 39.7494C42.6387 39.7494 42.7357 39.4186 43.1626 39.503C43.5898 39.5871 44.6194 40.1914 44.6194 40.1914L46.5965 39.9675" fill="white"/>
<path d="M42.6387 39.7494C42.6387 39.7494 42.7357 39.4186 43.1626 39.503C43.5898 39.5871 44.6194 40.1914 44.6194 40.1914L46.5965 39.9675" stroke="#263238" stroke-miterlimit="10" stroke-linecap="round"/>
<path d="M42.4927 40.6094C42.4927 40.6094 42.6661 40.2638 43.0209 40.3202C43.376 40.3765 44.7257 41.0461 44.7257 41.0461L46.6886 40.894" fill="white"/>
<path d="M42.4927 40.6094C42.4927 40.6094 42.6661 40.2638 43.0209 40.3202C43.376 40.3765 44.7257 41.0461 44.7257 41.0461L46.6886 40.894" stroke="#263238" stroke-miterlimit="10" stroke-linecap="round"/>
<path d="M113.093 54.1022C113.093 54.1022 113.818 52.7448 114.174 52.0318C114.531 51.3185 116.048 50.8417 116.405 50.6886C116.761 50.5359 118.595 49.6186 119.003 49.2111C119.41 48.8037 119.654 49.0636 119.677 49.4197C119.719 50.0585 119.022 50.6551 118.748 50.6886C118.35 50.7376 118.341 51.1472 118.341 51.1472C118.341 51.1472 121.347 51.1981 121.5 51.0964C121.652 50.9945 122.899 50.3289 123.307 50.5328C123.53 50.6443 123.506 50.6751 123.534 51.1013C123.542 51.2101 123.845 51.8205 123.818 51.9256C123.775 52.0986 123.813 52.2668 123.648 52.4655C123.447 52.7076 123.037 52.974 122.977 53.0833C122.671 53.6439 121.449 54.6628 120.888 54.8155C120.328 54.9683 115.43 55.2273 115.43 55.2273L110.61 61.5854L107.226 58.8106L113.093 54.1022Z" fill="white" stroke="#263238" stroke-miterlimit="10" stroke-linecap="round"/>
<path d="M119.575 53.6999C119.942 53.8751 120.464 54.0855 120.464 54.0855L121.126 53.9327C121.126 53.9327 122.349 52.8119 122.655 52.8627C122.655 52.8627 122.923 52.6893 122.977 53.0832" fill="white"/>
<path d="M119.575 53.6999C119.942 53.8751 120.464 54.0855 120.464 54.0855L121.126 53.9327C121.126 53.9327 122.349 52.8119 122.655 52.8627C122.655 52.8627 122.923 52.6893 122.977 53.0832" stroke="#263238" stroke-miterlimit="10" stroke-linecap="round"/>
<path d="M115.206 53.4748C115.206 53.4748 115.673 52.9552 116.59 52.7513C116.982 52.6641 118.063 53.1366 118.809 53.4295" stroke="#263238" stroke-miterlimit="10" stroke-linecap="round"/>
<path d="M118.341 51.1472L116.71 51.5039" stroke="#263238" stroke-miterlimit="10" stroke-linecap="round"/>
<path d="M123.534 51.1011C123.534 51.1011 123.385 50.7906 122.977 50.9434C122.57 51.0962 121.652 51.8606 121.652 51.8606L119.666 51.9626" fill="white"/>
<path d="M123.534 51.1011C123.534 51.1011 123.385 50.7906 122.977 50.9434C122.57 51.0962 121.652 51.8606 121.652 51.8606L119.666 51.9626" stroke="#263238" stroke-miterlimit="10" stroke-linecap="round"/>
<path d="M123.818 51.9253C123.818 51.9253 123.591 51.6126 123.25 51.7263C122.909 51.8399 121.686 52.7211 121.686 52.7211L119.725 52.8918" fill="white"/>
<path d="M123.818 51.9253C123.818 51.9253 123.591 51.6126 123.25 51.7263C122.909 51.8399 121.686 52.7211 121.686 52.7211L119.725 52.8918" stroke="#263238" stroke-miterlimit="10" stroke-linecap="round"/>
<path d="M64.0716 82.1843C64.0716 82.1843 62.9551 85.4777 63.0906 89.543C63.2261 93.6083 64.7883 102.594 64.148 103.968C63.5079 105.341 61.2158 105.768 59.5705 108.839C57.9251 111.909 53.7114 126.915 53.7394 127.342C53.7674 127.77 57.2814 128.987 57.2814 128.987C57.2814 128.987 67.0459 112.152 70.0086 108.866C72.9712 105.58 75.8285 87.9164 75.8285 87.9164C75.8285 87.9164 74.7998 107.167 74.9353 110.42C75.0709 113.672 78.1321 121.658 78.9452 124.91C79.7583 128.162 79.8938 135.887 79.8938 135.887C79.8938 135.887 82.7394 136.564 83.6881 136.293C84.6367 136.022 84.6367 136.022 84.6367 136.022C84.6367 136.022 84.8382 126.075 85.1089 122.822C85.3799 119.57 83.5421 109.54 83.5421 109.54C83.5421 109.54 88.702 92.6593 89.1086 86.4257C89.1086 86.4257 87.4823 78.8372 84.2302 76.2627C80.978 73.6881 75.693 72.4684 72.3053 73.6881C68.9173 74.9081 64.0716 82.1843 64.0716 82.1843Z" fill="#263238" stroke="#263238" stroke-width="0.2" stroke-miterlimit="10"/>
<path d="M77.1625 78.0146C77.1625 78.3423 76.897 78.6078 76.5693 78.6078C76.2416 78.6078 75.9761 78.3423 75.9761 78.0146C75.9761 77.6869 76.2416 77.4214 76.5693 77.4214C76.897 77.4214 77.1625 77.6869 77.1625 78.0146Z" fill="white" stroke="#263238" stroke-width="0.2" stroke-miterlimit="10" stroke-linecap="round"/>
<path d="M75.976 78.0146C75.976 78.0146 74.9476 82.9584 75.1059 83.6705C75.2642 84.3822 76.0552 84.3034 76.0552 84.3034L76.6881 82.3257" stroke="#858585" stroke-width="0.2" stroke-miterlimit="10"/>
<path d="M72.021 77.5794C72.021 77.5794 73.9195 77.4609 74.9476 77.7378" stroke="#858585" stroke-width="0.2" stroke-miterlimit="10"/>
<path d="M69.9644 82.4836C69.9644 82.4836 71.5462 85.0148 72.891 86.597" stroke="#858585" stroke-width="0.2" stroke-miterlimit="10"/>
<path d="M82.3042 83.2747L79.1401 85.4895" stroke="#858585" stroke-width="0.2" stroke-miterlimit="10"/>
<path d="M79.8934 135.887C79.8934 135.887 79.995 139.643 79.8992 140.123C79.8035 140.603 78.46 145.401 78.46 146.744C78.46 148.088 80.0914 150.679 81.4349 150.103C82.7784 149.527 84.3138 147.8 84.6018 146.456C84.8898 145.113 83.93 140.891 83.93 140.123C83.93 139.355 83.93 135.325 83.93 135.325L79.8934 135.887Z" fill="white" stroke="#263238" stroke-width="0.2" stroke-miterlimit="10"/>
<path d="M81.4346 150.103C82.7781 149.527 84.3135 147.8 84.6015 146.456C84.7623 145.706 84.534 144.058 84.3009 142.615C83.9519 143.483 83.3836 144.828 83.0661 145.209C82.5862 145.785 81.3388 146.456 80.1872 145.592C79.0356 144.729 79.4197 142.617 79.4197 142.617L79.2595 142.64C78.8745 144.185 78.46 145.998 78.46 146.744C78.46 148.088 80.0911 150.679 81.4346 150.103Z" fill="#009688" stroke="#263238" stroke-width="0.2" stroke-miterlimit="10"/>
<path d="M53.739 127.343C53.739 127.343 52.7343 129.68 52.1592 131.116C51.5842 132.553 51.2525 133.061 51.2833 134.458C51.3138 135.855 50.3984 138.591 51.797 140.446C52.7287 141.681 54.8071 141.831 55.5571 139.348C56.3071 136.866 55.7508 132.554 55.7798 132.065C55.8087 131.577 56.5479 128.919 56.5479 128.919L53.739 127.343Z" fill="white" stroke="#263238" stroke-width="0.2" stroke-miterlimit="10"/>
<path d="M51.2838 134.458C51.3143 135.855 50.3989 138.591 51.7975 140.446C52.7292 141.682 54.8076 141.831 55.5576 139.349C55.8736 138.303 55.9574 136.932 55.9509 135.659C55.483 136.68 54.9256 137.676 54.2427 138.309C53.3252 139.16 52.3374 138.008 51.9752 137.12C51.613 136.231 52.16 131.117 52.16 131.117C51.5847 132.553 51.253 133.062 51.2838 134.458Z" fill="#009688" stroke="#263238" stroke-width="0.2" stroke-miterlimit="10"/>
<path d="M107.749 58.3618C107.435 58.2362 107.121 58.4246 107.121 58.4246L106.556 59.2412C106.556 59.2412 106.556 59.2412 106.116 59.2412C105.793 59.2412 105.369 59.8168 105.167 60.1223L104.636 60.5329C104.608 60.5354 104.578 60.544 104.546 60.56C104.044 60.8113 103.227 61.188 103.227 61.188C103.227 61.188 102.913 60.2459 102.411 60.0577C102.106 59.9434 101.548 59.6911 101.156 59.5097L94.9765 51.7118C95.2463 50.7675 87.6454 47.7848 87.6454 47.7848L77.2575 45.7612L71.7332 46.9341L65.7365 51.5732C65.5403 51.4118 65.0515 51.0456 64.7552 51.1445C64.3785 51.2701 63.6248 52.2748 63.6248 52.2748C63.6248 52.2748 63.4363 51.2701 63.1853 51.0816C62.934 50.8931 62.1178 50.6421 62.1178 50.6421C62.1178 50.6421 62.4319 50.3279 62.1178 49.8256C61.8036 49.3233 61.1131 49.0091 60.9246 48.6952C60.7361 48.3814 60.5479 47.6905 60.2337 47.5649C59.9196 47.4392 59.9196 47.4392 59.9196 47.4392C59.9196 47.4392 57.596 48.5067 56.4025 49.4489C55.2093 50.3911 54.7695 50.2654 54.958 50.9563C55.1465 51.6471 55.6088 51.697 55.6088 51.697C55.6088 51.697 55.0837 52.4008 55.4604 53.0288C55.837 53.6568 56.3397 53.971 56.3397 53.971C56.3397 53.971 56.9049 55.1013 57.219 55.7293C57.4282 56.1473 58.3593 56.815 58.9965 57.2894C60.271 59.3711 61.2773 60.9718 61.5304 61.2515C62.5262 62.3517 62.8899 62.2802 63.8343 61.7443C64.3579 61.4471 66.9127 60.0626 70.4338 58.4342L71.0387 62.6119C71.0387 62.6119 66.4871 72.3552 66.1008 73.2567C65.7146 74.1582 66.3802 74.5053 66.3802 74.5053C66.3802 74.5053 64.3224 77.5961 64.1937 78.2401C64.065 78.8842 64.0717 82.185 64.0717 82.185L69.292 78.8912C72.0265 76.6539 73.0974 76.11 73.4285 76.1337C74.9075 76.2394 77.8695 76.5526 78.609 77.0808C78.609 77.0808 88.6461 87.1934 88.8731 87.7986C89.1001 88.4038 89.7152 85.756 90.0934 84.6213C90.4716 83.4866 89.9422 82.9572 89.9422 82.9572C89.9422 82.9572 90.6987 82.4277 90.6229 81.5955C90.5745 81.0636 90.9333 80.373 90.5927 78.3412C90.5973 77.0571 89.7697 73.7883 89.803 73.387C89.8418 72.9194 88.8861 67.4629 89.0816 66.8318C90.3703 64.2311 90.7833 65.1397 92.4573 62.8189C95.5891 64.9416 103.41 70.2971 103.823 70.1129C104.473 69.8225 106.382 68.2428 108.104 65.8391L109.006 64.7688C109.006 64.7688 109.006 64.7688 109.508 64.078C110.01 63.3871 110.199 62.5706 110.45 62.3825C110.701 62.194 110.827 61.7544 110.827 61.2521C110.826 60.7485 108.063 58.4875 107.749 58.3618Z" fill="#009688" stroke="#263238" stroke-width="0.2" stroke-miterlimit="10"/>
<path d="M92.4568 62.818L90.707 61.8669" stroke="#263238" stroke-width="0.2" stroke-miterlimit="10"/>
<path d="M80.0278 67.6357C80.3934 68.1073 80.7855 68.5628 81.2004 68.9774" stroke="#263238" stroke-width="0.2" stroke-miterlimit="10"/>
<path d="M76.9775 62.3896C76.9775 62.3896 77.7537 64.2521 79.0427 66.2415" stroke="#263238" stroke-width="0.2" stroke-miterlimit="10"/>
<path d="M78.0757 65.7681L79.6804 68.4708" stroke="#263238" stroke-width="0.2" stroke-miterlimit="10"/>
<path d="M78.3464 47.9717C78.3464 47.9717 77.3156 50.9029 78.1601 53.5212" stroke="#263238" stroke-width="0.2" stroke-miterlimit="10"/>
<path d="M80.1528 76.8989C80.1528 76.8989 86.6042 80.995 88.5498 82.2239L80.1528 76.8989Z" fill="white"/>
<path d="M80.1528 76.8989C80.1528 76.8989 86.6042 80.995 88.5498 82.2239" stroke="#263238" stroke-width="0.2" stroke-miterlimit="10"/>
<path d="M65.2017 79.3565L71.9102 76.3064" stroke="#263238" stroke-width="0.2" stroke-miterlimit="10"/>
<path d="M78.6084 77.0796C78.6084 77.0796 81.1765 78.2303 83.2247 79.4592L78.6084 77.0796Z" fill="white"/>
<path d="M78.6084 77.0796C78.6084 77.0796 81.1765 78.2303 83.2247 79.4592" stroke="#263238" stroke-width="0.2" stroke-miterlimit="10"/>
<path d="M72.016 53.313C72.016 53.313 70.9993 55.6372 70.5693 57.6552L72.016 53.313Z" fill="white"/>
<path d="M72.016 53.313C72.016 53.313 70.9993 55.6372 70.5693 57.6552" stroke="#263238" stroke-width="0.2" stroke-miterlimit="10"/>
<path d="M63.5486 52.8459C63.5486 52.8459 62.4506 55.5486 62.3662 56.9001L63.5486 52.8459Z" fill="#B8B8B8"/>
<path d="M63.5486 52.8459C63.5486 52.8459 62.4506 55.5486 62.3662 56.9001" stroke="#263238" stroke-width="0.2" stroke-miterlimit="10"/>
<path d="M61.4369 50.3962C61.4369 50.3962 58.2275 52.5923 57.5518 54.197L61.4369 50.3962Z" fill="#B8B8B8"/>
<path d="M61.4369 50.3962C61.4369 50.3962 58.2275 52.5923 57.5518 54.197" stroke="#263238" stroke-width="0.2" stroke-miterlimit="10"/>
<path d="M56.4541 51.2409C56.4541 51.2409 58.3902 49.4449 60.0857 48.9604L56.4541 51.2409Z" fill="#B8B8B8"/>
<path d="M56.4541 51.2409C56.4541 51.2409 58.3902 49.4449 60.0857 48.9604" stroke="#263238" stroke-width="0.2" stroke-miterlimit="10"/>
<path d="M62.7883 53.2681C62.7883 53.2681 60.17 57.7445 60.677 57.9133C61.1836 58.0821 61.6059 56.8153 61.6059 56.8153" fill="#B8B8B8"/>
<path d="M62.7883 53.2681C62.7883 53.2681 60.17 57.7445 60.677 57.9133C61.1836 58.0821 61.6059 56.8153 61.6059 56.8153" stroke="#263238" stroke-width="0.2" stroke-miterlimit="10"/>
<path d="M103.143 62.0972C103.143 62.0972 103.312 65.8979 103.734 65.7288C104.157 65.56 103.819 63.5328 103.819 63.5328" stroke="#263238" stroke-width="0.2" stroke-miterlimit="10"/>
<path d="M105.423 60.7461C105.423 60.7461 106.775 63.1953 107.366 63.6179" stroke="#263238" stroke-width="0.2" stroke-miterlimit="10"/>
<path d="M106.556 59.2412C106.556 59.2412 108.886 60.9149 109.478 61.7594" stroke="#263238" stroke-width="0.2" stroke-miterlimit="10"/>
<path d="M102.299 60.8303C102.299 60.8303 101.285 63.9553 101.961 65.6444" stroke="#263238" stroke-width="0.2" stroke-miterlimit="10"/>
<path d="M83.0677 45.6125L82.164 45.0708C82.164 45.0708 81.3734 44.8167 80.6249 46.1611C80.6249 46.1611 79.6553 48.0959 79.5814 50.0142C79.514 51.7701 81.3272 53.1336 84.4244 51.6915C84.7296 51.568 85.0308 51.4159 85.3145 51.22C86.6087 50.3262 88.1614 48.6654 88.1614 48.6654L88.831 43.5579C87.4585 44.3393 84.5836 45.1924 83.0677 45.6125Z" fill="white" stroke="#263238" stroke-width="0.2" stroke-miterlimit="10"/>
<path d="M86.0822 44.5656C86.0822 44.5656 81.7462 48.8893 79.8027 49.6455L80.6818 45.5814L86.2073 43.9607L86.0822 44.5656Z" fill="#263238" stroke="#263238" stroke-width="0.2" stroke-miterlimit="10"/>
<path d="M86.7718 33.7101C86.7718 33.7101 87.7451 33.8173 88.504 35.8707C89.2629 37.9242 89.0608 38.4666 89.7532 39.5116C90.4456 40.5567 91.1013 42.2276 90.8365 43.7565C90.5713 45.2857 90.3741 47.3712 89.0331 48.1843C86.9095 49.4723 84.0115 47.3006 82.4669 46.4444C80.9222 45.5881 79.5883 43.9154 79.1038 43.1839C78.619 42.4524 77.5811 40.6589 77.6562 38.7293C77.7314 36.8 79.9453 34.5811 81.1465 34.0107C82.3474 33.4406 84.4963 33.1126 86.7718 33.7101Z" fill="white" stroke="#263238" stroke-width="0.2" stroke-miterlimit="10"/>
<path d="M81.3942 31.8958C81.3942 31.8958 82.0385 30.2489 79.6758 29.891C77.3132 29.5331 77.4564 31.0365 76.955 31.1797C76.4539 31.3229 75.2366 28.602 72.9454 29.5328C70.6542 30.4636 71.4418 32.683 71.3703 33.2559C71.2989 33.8288 70.1531 32.3969 69.1509 34.2585C68.1483 36.12 69.1509 37.3372 69.0076 37.7669C68.8644 38.1966 66.8036 37.1629 66.3025 38.738C65.8014 40.3131 67.09 41.6021 67.09 41.8882C67.09 42.1747 65.9566 42.1661 65.6702 43.2401C65.3837 44.3141 66.1593 44.8952 66.231 45.4681C66.3028 46.041 65.0911 47.1683 66.0937 48.7434C67.0962 50.3185 69.0076 49.7952 68.9362 50.5828C68.8647 51.3703 68.2919 52.0147 69.1509 52.5875C70.0102 53.1604 70.941 52.1579 70.941 52.1579C70.941 52.1579 70.7263 50.8692 71.0842 50.8692C71.4421 50.8692 72.4446 51.8 73.1604 51.2989C73.8765 50.7978 73.7333 49.5088 74.3059 49.3656C74.8787 49.2223 74.5923 49.652 76.1674 49.437C77.7425 49.2223 77.5279 47.2176 77.5279 46.8594C77.5279 46.5015 78.6018 47.0026 79.1747 46.0718C79.7476 45.141 79.3087 44.4009 79.3087 44.4009C79.3087 44.4009 77.6711 41.7041 77.8857 40.1289" fill="#263238"/>
<path d="M81.3942 31.8958C81.3942 31.8958 82.0385 30.2489 79.6758 29.891C77.3132 29.5331 77.4564 31.0365 76.955 31.1797C76.4539 31.3229 75.2366 28.602 72.9454 29.5328C70.6542 30.4636 71.4418 32.683 71.3703 33.2559C71.2989 33.8288 70.1531 32.3969 69.1509 34.2585C68.1483 36.12 69.1509 37.3372 69.0076 37.7669C68.8644 38.1966 66.8036 37.1629 66.3025 38.738C65.8014 40.3131 67.09 41.6021 67.09 41.8882C67.09 42.1747 65.9566 42.1661 65.6702 43.2401C65.3837 44.3141 66.1593 44.8952 66.231 45.4681C66.3028 46.041 65.0911 47.1683 66.0937 48.7434C67.0962 50.3185 69.0076 49.7952 68.9362 50.5828C68.8647 51.3703 68.2919 52.0147 69.1509 52.5875C70.0102 53.1604 70.941 52.1579 70.941 52.1579C70.941 52.1579 70.7263 50.8692 71.0842 50.8692C71.4421 50.8692 72.4446 51.8 73.1604 51.2989C73.8765 50.7978 73.7333 49.5088 74.3059 49.3656C74.8787 49.2223 74.5923 49.652 76.1674 49.437C77.7425 49.2223 77.5279 47.2176 77.5279 46.8594C77.5279 46.5015 78.6018 47.0026 79.1747 46.0718C79.7476 45.141 79.3087 44.4009 79.3087 44.4009C79.3087 44.4009 77.6711 41.7041 77.8857 40.1289" stroke="#263238" stroke-width="0.2" stroke-miterlimit="10"/>
<path d="M80.2662 43.9176C80.2662 43.9176 79.9905 43.0475 80.6539 42.0065C81.3177 40.9654 81.4076 39.853 80.6441 39.3814C79.8806 38.9099 79.5873 38.1266 80.7035 36.8607C81.8197 35.5949 83.7718 37.1262 84.9398 36.0519C86.1077 34.9773 86.1271 34.2126 87.0141 34.0761C87.9012 33.9397 88.1762 35.0355 88.1762 35.0355C88.1762 35.0355 87.3221 32.5509 84.5597 31.8998C81.7976 31.2487 77.4631 33.218 76.0617 37.004C74.6603 40.7899 79.3089 44.4015 79.3089 44.4015C79.3089 44.4015 79.6037 44.5068 80.2662 43.9176Z" fill="#263238" stroke="#263238" stroke-width="0.2" stroke-miterlimit="10"/>
<path d="M87.3862 40.4785L89.4738 43.3254L87.863 43.922" stroke="#263238" stroke-width="0.2" stroke-miterlimit="10"/>
<path d="M89.2852 45.1602C89.2852 45.1602 88.344 46.0093 87.3892 45.5892" stroke="#263238" stroke-width="0.2" stroke-miterlimit="10"/>
<path d="M85.3759 41.7642C85.5256 42.0956 85.5059 42.4276 85.3325 42.5059C85.1588 42.5841 84.897 42.3793 84.7476 42.0479C84.5979 41.7164 84.6176 41.3844 84.791 41.3062C84.9644 41.228 85.2262 41.4331 85.3759 41.7642Z" fill="#263238"/>
<path d="M88.7792 39.6305C88.9289 39.9619 88.9092 40.2939 88.7358 40.3722C88.5624 40.4504 88.3003 40.2456 88.1509 39.9142C88.0012 39.5828 88.0209 39.2507 88.1943 39.1725C88.3677 39.094 88.6295 39.2991 88.7792 39.6305Z" fill="#263238"/>
<path d="M83.1367 41.2843C83.1367 41.2843 83.612 39.5607 85.0229 39.7215" stroke="#263238" stroke-width="0.2" stroke-miterlimit="10" stroke-linecap="round"/>
<path d="M86.9438 38.4489C86.9438 38.4489 87.2728 37.2917 88.3339 37.4759" stroke="#263238" stroke-width="0.2" stroke-miterlimit="10" stroke-linecap="round"/>
<path d="M80.6483 44.0403C80.6483 44.0403 78.8631 42.1403 78.5628 43.8432C78.2625 45.5461 79.8432 46.0026 80.6249 46.1612C81.4066 46.3198 81.67 45.4688 81.67 45.4688" fill="white"/>
<path d="M80.6483 44.0403C80.6483 44.0403 78.8631 42.1403 78.5628 43.8432C78.2625 45.5461 79.8432 46.0026 80.6249 46.1612C81.4066 46.3198 81.67 45.4688 81.67 45.4688" stroke="#263238" stroke-width="0.2" stroke-miterlimit="10"/>
<path d="M116.608 52.8664C126.953 52.8664 135.34 44.4796 135.34 34.1341C135.34 23.7886 126.953 15.4019 116.608 15.4019C106.262 15.4019 97.8755 23.7886 97.8755 34.1341C97.8755 44.4796 106.262 52.8664 116.608 52.8664Z" fill="white" stroke="#263238" stroke-width="0.5" stroke-miterlimit="10"/>
<path d="M116.608 48.4801C124.531 48.4801 130.954 42.0572 130.954 34.1341C130.954 26.211 124.531 19.7881 116.608 19.7881C108.685 19.7881 102.262 26.211 102.262 34.1341C102.262 42.0572 108.685 48.4801 116.608 48.4801Z" fill="#E13B3F" stroke="#263238" stroke-width="0.5" stroke-miterlimit="10"/>
<path d="M124.079 43.2324C123.656 43.2324 123.232 43.0707 122.909 42.7477L108.465 28.3037C107.819 27.6576 107.819 26.6096 108.465 25.9636C109.111 25.3175 110.159 25.3175 110.805 25.9636L125.249 40.4076C125.896 41.0537 125.896 42.1017 125.249 42.7477C124.926 43.0709 124.502 43.2324 124.079 43.2324Z" fill="white"/>
<path d="M109.635 43.2324C109.212 43.2324 108.788 43.0707 108.465 42.7477C107.819 42.1017 107.819 41.0537 108.465 40.4076L122.909 25.9636C123.555 25.3175 124.603 25.3175 125.249 25.9636C125.895 26.6096 125.895 27.6576 125.249 28.3037L110.805 42.7477C110.482 43.0709 110.059 43.2324 109.635 43.2324Z" fill="white"/>
<path d="M42.3992 41.3065C52.7448 41.3065 61.1315 32.9198 61.1315 22.5743C61.1315 12.2288 52.7448 3.84204 42.3992 3.84204C32.0537 3.84204 23.667 12.2288 23.667 22.5743C23.667 32.9198 32.0537 41.3065 42.3992 41.3065Z" fill="white" stroke="#263238" stroke-width="0.5" stroke-miterlimit="10"/>
<path d="M42.3992 36.9203C50.3223 36.9203 56.7453 30.4974 56.7453 22.5743C56.7453 14.6512 50.3223 8.22827 42.3992 8.22827C34.4762 8.22827 28.0532 14.6512 28.0532 22.5743C28.0532 30.4974 34.4762 36.9203 42.3992 36.9203Z" fill="#009688" stroke="#263238" stroke-width="0.5" stroke-miterlimit="10"/>
<path d="M37.7815 31.386C37.7328 31.386 37.684 31.3836 37.6349 31.3787C37.1608 31.3321 36.7369 31.0625 36.494 30.6528L32.3742 23.7079C31.9525 22.9969 32.1869 22.0787 32.8979 21.6568C33.6091 21.2351 34.5271 21.4695 34.949 22.1805L38.029 27.3723L49.0269 15.1174C49.5788 14.502 50.5252 14.4507 51.1407 15.0032C51.7561 15.5553 51.8072 16.5018 51.2549 17.117L38.8954 30.8888C38.6102 31.2068 38.2041 31.386 37.7815 31.386Z" fill="#263238"/>
</svg>
